<svg id="visual" viewBox="0 0 100 100" width="100" height="100" xmlns="http://www.w3.org/2000/svg" xmlns:xlink="http://www.w3.org/1999/xlink" version="1.1"><rect x="0" y="0" width="100" height="100" fill="#4361ee"></rect><path d="M20 0L19.7 3.3C19.3 6.7 18.7 13.3 20.8 20C23 26.7 28 33.3 30.7 40C33.3 46.7 33.7 53.3 31.5 60C29.3 66.7 24.7 73.3 23.2 80C21.7 86.7 23.3 93.3 24.2 96.7L25 100L0 100L0 96.7C0 93.3 0 86.7 0 80C0 73.3 0 66.7 0 60C0 53.3 0 46.7 0 40C0 33.3 0 26.7 0 20C0 13.3 0 6.7 0 3.3L0 0Z" fill="#3f37c9" stroke-linecap="round" stroke-linejoin="miter"></path></svg>