<svg id="visual" viewBox="0 0 100 10" width="100" height="10" xmlns="http://www.w3.org/2000/svg" xmlns:xlink="http://www.w3.org/1999/xlink" version="1.1"><path d="M0 5L3.3 5.2C6.7 5.3 13.3 5.7 20 5.3C26.7 5 33.3 4 40 3.3C46.7 2.7 53.3 2.3 60 2.7C66.7 3 73.3 4 80 4.3C86.7 4.7 93.3 4.3 96.7 4.2L100 4L100 11L96.7 11C93.3 11 86.7 11 80 11C73.3 11 66.7 11 60 11C53.3 11 46.7 11 40 11C33.3 11 26.7 11 20 11C13.3 11 6.7 11 3.3 11L0 11Z" fill="#ffffff" stroke-linecap="round" stroke-linejoin="miter"></path></svg>